:SAMPLES-PER-SECOND 30
:FULLY-SPECIFIED
:DEGREES
428
root  -3.55655 39.0925 -1.52395 -165.984 -86.1167 160.174
RightUpLeg  13.085 -8.75296 -3.08175
RightLeg  11.9324 11.4252 2.04833
RightFoot  -16.9833 -0.276211 -3.28463
RightToes  -2.32831e-009 0 -3.6325e-017
Spine  5.36986 2.61406 10.4171
Spine1  6.16455 5.10663 -8.59374
HEad  -14.1767 -3.29098 -1.48243
LeftShoulder1  -0.535499 4.87889 -32.788
LeftArm  -5.90486 21.7094 -36.9664
LeftForeArm  41.2865 -5.43004 -7.414
LeftHand  -0.53067 12.7303 -6.9646
RightShoulder  -0.824712 -5.96509 26.8964
RightArm  14.0531 23.0802 46.1614
RightForeArm  8.91915 31.5702 6.43987
RightHand  -0.179921 9.09396 -1.83121
LeftUpLeg  -14.5787 3.17518 0.644009
LeftLeg  -4.65366 3.88858 -1.15682
LeftFoot  1.12996 0.812657 -7.50472
LeftToes  8.91272e-011 -1.70619e-011 7.36378e-012
429
root  -4.8542 38.813 -1.46857 -167.213 -86.1242 161.644
RightUpLeg  14.6321 -8.86845 -3.61571
RightLeg  12.9365 11.9567 2.25359
RightFoot  -19.022 -0.291097 -2.43168
RightToes  -2.32831e-009 0 -3.6325e-017
Spine  4.88829 2.71884 9.69807
Spine1  6.25919 5.04508 -8.12301
HEad  -14.3549 -3.39927 -0.958832
LeftShoulder1  -0.562365 4.93765 -33.0583
LeftArm  -4.28428 23.2628 -35.4457
LeftForeArm  42.0736 -5.8986 -8.19823
LeftHand  -0.435206 12.2189 -6.00259
RightShoulder  -0.80216 -5.89703 26.8636
RightArm  15.4046 22.4853 46.3946
RightForeArm  7.84388 30.243 6.16819
RightHand  -0.241332 9.14822 -2.3176
LeftUpLeg  -15.6211 2.87297 0.182515
LeftLeg  -3.68826 7.22946 -1.41921
LeftFoot  -0.0314265 0.767742 -7.72198
LeftToes  8.91272e-011 -1.70619e-011 7.36378e-012
430
root  -6.24874 38.5156 -1.39591 -166.611 -86.4339 160.742
RightUpLeg  16.9289 -8.8786 -4.3918
RightLeg  14.0016 12.3059 2.54305
RightFoot  -20.7275 -0.241973 -1.23488
RightToes  -2.32831e-009 0 -3.6325e-017
Spine  4.72446 2.68403 9.90672
Spine1  6.71795 5.34938 -9.28399
HEad  -15.0341 -3.95853 -0.273656
LeftShoulder1  -0.512178 4.83612 -32.3052
LeftArm  -3.60226 23.9917 -34.8401
LeftForeArm  41.9722 -6.20136 -8.45248
LeftHand  -0.468024 12.2452 -6.50234
RightShoulder  -0.953085 -6.24546 28.2172
RightArm  16.3875 21.0322 46.0924
RightForeArm  7.56119 28.7545 5.82235
RightHand  -0.267189 8.93683 -2.54855
LeftUpLeg  -16.6415 2.97041 -0.689302
LeftLeg  1.75367 8.72405 -1.22497
LeftFoot  1.57751 0.629608 -5.60834
LeftToes  8.91272e-011 -1.70619e-011 7.36378e-012
431
root  -7.70558 38.3316 -1.29953 -163.077 -85.6582 156.92
RightUpLeg  19.2448 -7.9826 -5.67957
RightLeg  14.717 12.7625 2.73511
RightFoot  -21.3958 -0.104945 0.460839
RightToes  -2.32831e-009 0 -3.6325e-017
Spine  4.36267 3.3239 9.21109
Spine1  7.24213 6.16755 -9.86622
HEad  -15.0618 -4.54398 -0.323552
LeftShoulder1  -0.558782 4.95116 -32.4624
LeftArm  -3.10361 24.2172 -33.9629
LeftForeArm  41.4877 -6.49498 -8.55494
LeftHand  -0.470061 12.2965 -6.4867
RightShoulder  -0.955378 -6.22389 28.5684
RightArm  18.0141 18.0469 45.9626
RightForeArm  5.82087 26.4244 5.32404
RightHand  -0.31027 9.02499 -2.88344
LeftUpLeg  -17.3121 3.65021 -2.17303
LeftLeg  6.96661 6.97299 -0.615649
LeftFoot  5.69819 -0.0998 -0.0292139
LeftToes  8.91272e-011 -1.70619e-011 7.36378e-012
432
root  -9.19723 38.2461 -1.17523 -155.502 -84.2219 149.127
RightUpLeg  20.623 -5.36233 -7.2638
RightLeg  16.6285 12.3694 3.36582
RightFoot  -21.2498 0.181052 3.70089
RightToes  -2.32831e-009 0 -3.6325e-017
Spine  4.09491 3.97265 7.71627
Spine1  7.18116 6.90622 -10.4656
HEad  -14.7402 -4.187 -0.862748
LeftShoulder1  -0.692099 5.27801 -32.829
LeftArm  -3.09124 23.8819 -33.209
LeftForeArm  41.1694 -6.4744 -8.52883
LeftHand  -0.509096 12.8574 -6.53807
RightShoulder  -0.9909 -6.26023 29.3679
RightArm  20.5561 14.9806 46.3301
RightForeArm  4.77093 22.2219 4.87115
RightHand  -0.253185 8.5839 -2.48652
LeftUpLeg  -17.3866 4.49719 -4.22684
LeftLeg  10.6811 5.98848 -0.00220956
LeftFoot  10.4986 -1.35976 6.89539
LeftToes  8.91272e-011 -1.70619e-011 7.36378e-012
433
root  -10.6751 38.1469 -1.06471 -141.726 -83.4935 135.016
RightUpLeg  20.7045 -2.83179 -8.93522
RightLeg  21.3822 10.8275 4.49661
RightFoot  -20.2223 0.507176 8.39882
RightToes  -2.32831e-009 0 -3.6325e-017
Spine  3.92274 4.13205 5.16874
Spine1  6.86851 6.78908 -10.1431
HEad  -13.5849 -3.85182 -1.66433
LeftShoulder1  -0.847549 5.63036 -33.6935
LeftArm  -2.98672 21.8774 -32.4103
LeftForeArm  40.9871 -5.64748 -8.64812
LeftHand  -0.486723 12.1388 -6.8981
RightShoulder  -1.10258 -6.49293 30.3596
RightArm  18.9725 12.2077 47.1692
RightForeArm  7.97883 15.5566 5.87817
RightHand  -0.186972 7.96657 -1.98473
LeftUpLeg  -17.8546 5.55417 -7.1665
LeftLeg  16.805 4.82118 1.76553
LeftFoot  5.99698 -1.13263 7.18743
LeftToes  8.91272e-011 -1.70619e-011 7.36378e-012
434
root  -11.9613 38.1545 -0.939621 -133.828 -82.9828 126.778
RightUpLeg  18.2649 -2.00184 -10.6029
RightLeg  29.8589 10.3937 6.18025
RightFoot  -15.8528 0.427129 14.0241
RightToes  -2.32831e-009 0 -3.6325e-017
Spine  4.44901 4.23109 3.85876
Spine1  6.48796 6.71666 -10.6337
HEad  -12.9961 -3.7059 -2.91436
LeftShoulder1  -0.84804 5.59926 -34.2879
LeftArm  -3.38127 19.1023 -32.7249
LeftForeArm  41.2563 -5.08047 -8.60241
LeftHand  -0.367542 11.2663 -5.83785
RightShoulder  -1.02931 -6.30682 30.1712
RightArm  12.591 8.44145 48.6202
RightForeArm  15.4652 8.11631 6.83804
RightHand  -0.0398736 6.84577 -0.738744
LeftUpLeg  -16.8187 6.04987 -8.72076
LeftLeg  19.6292 4.30082 2.04652
LeftFoot  2.92042 -1.04422 8.17941
LeftToes  8.91272e-011 -1.70619e-011 7.36378e-012
435
root  -13.1126 38.2457 -0.780209 -134.919 -81.9335 127.732
RightUpLeg  12.8456 0.0949734 -11.7031
RightLeg  40.9448 9.19914 8.18319
RightFoot  -7.14801 -0.660256 17.2375
RightToes  -2.32831e-009 0 -3.6325e-017
Spine  5.31587 4.50322 3.63922
Spine1  6.0051 7.02355 -11.9749
HEad  -12.9952 -2.82948 -4.5817
LeftShoulder1  -0.859331 5.62674 -34.2764
LeftArm  -3.44681 15.8759 -34.2702
LeftForeArm  40.9194 -4.84844 -8.84053
LeftHand  -0.359445 12.4783 -4.54722
RightShoulder  -1.03505 -6.3073 30.358
RightArm  10.5371 5.15486 49.9758
RightForeArm  19.8193 2.27152 6.255
RightHand  0.0230217 5.54571 -0.0878844
LeftUpLeg  -15.3358 6.35959 -9.59686
LeftLeg  20.8669 4.96518 2.3562
LeftFoot  0.397594 -0.882777 8.54116
LeftToes  8.91272e-011 -1.70619e-011 7.36378e-012
436
root  -14.2266 38.3692 -0.668042 -136.635 -80.6721 129.362
RightUpLeg  6.33917 2.95861 -12.2017
RightLeg  51.5258 7.19216 9.24006
RightFoot  3.08375 -1.97163 15.764
RightToes  -2.32831e-009 0 -3.6325e-017
Spine  5.67246 4.52093 2.19246
Spine1  6.1057 6.78442 -11.6971
HEad  -13.6141 -1.53157 -5.94679
LeftShoulder1  -0.963107 5.8604 -34.6699
LeftArm  -3.21384 12.686 -35.8521
LeftForeArm  39.845 -6.27478 -9.02401
LeftHand  -0.36206 12.1197 -4.91959
RightShoulder  -0.93365 -6.05316 30.0448
RightArm  10.5947 2.41908 50.9793
RightForeArm  25.5204 -0.511283 6.28533
RightHand  0.153889 4.45385 1.62189
LeftUpLeg  -13.4394 5.72751 -10.394
LeftLeg  21.0812 6.74941 2.8925
LeftFoot  -1.5042 -0.733927 8.61207
LeftToes  8.91272e-011 -1.70619e-011 7.36378e-012
437
root  -15.2608 38.4975 -0.609535 -137.286 -80.2514 129.818
RightUpLeg  0.827843 4.51741 -12.0788
RightLeg  59.0102 5.15647 8.75025
RightFoot  5.36236 -1.81181 12.4441
RightToes  -2.32831e-009 0 -3.6325e-017
Spine  6.13586 4.12343 0.390373
Spine1  6.23201 5.91876 -10.8135
HEad  -14.4466 0.391328 -6.02456
LeftShoulder1  -0.913474 5.77573 -34.0245
LeftArm  -1.1283 10.1094 -38.1163
LeftForeArm  36.9068 -8.94789 -9.06877
LeftHand  -0.297422 10.7816 -4.85386
RightShoulder  -0.967327 -6.09876 30.7013
RightArm  12.3047 -0.631688 50.2079
RightForeArm  32.3013 1.14978 6.88674
RightHand  0.272887 2.96562 3.57353
LeftUpLeg  -11.4399 5.26534 -10.6139
LeftLeg  21.1535 7.71167 2.9434
LeftFoot  -3.30002 -0.578978 8.50674
LeftToes  8.91272e-011 -1.70619e-011 7.36378e-012
438
root  -16.3018 38.7027 -0.558448 -135.57 -81.2136 128.087
RightUpLeg  -4.12431 4.41478 -11.4355
RightLeg  63.4782 3.63315 7.36633
RightFoot  2.67123 -1.34398 11.0788
RightToes  -2.32831e-009 0 -3.6325e-017
Spine  6.01044 3.2237 -1.55079
Spine1  6.57327 4.23083 -8.09917
HEad  -14.9713 1.89978 -6.10031
LeftShoulder1  -0.934959 5.79785 -34.5633
LeftArm  4.31025 6.98868 -39.403
LeftForeArm  29.4878 -12.6066 -8.68074
LeftHand  -0.185178 10.5293 -2.77825
RightShoulder  -0.992699 -6.16718 30.6964
RightArm  14.8214 -3.88735 48.5771
RightForeArm  32.0961 4.78436 7.71576
RightHand  0.226747 4.4001 2.37758
LeftUpLeg  -9.17726 4.17637 -10.2334
LeftLeg  20.425 8.05318 2.75217
LeftFoot  -4.68465 -0.45899 8.35192
LeftToes  8.91272e-011 -1.70619e-011 7.36378e-012
439
root  -17.3557 38.8968 -0.516891 -134.235 -82.2927 126.768
RightUpLeg  -8.65549 4.27098 -10.558
RightLeg  64.8955 2.7503 5.83541
RightFoot  2.05835 -1.19882 10.3036
RightToes  -2.32831e-009 0 -3.6325e-017
Spine  5.91766 2.25325 -3.24873
Spine1  6.60939 2.5622 -5.62884
HEad  -14.6797 3.14465 -5.27281
LeftShoulder1  -0.924249 5.78746 -34.2757
LeftArm  9.83386 4.23885 -41.076
LeftForeArm  22.7806 -16.6293 -7.03243
LeftHand  -0.14217 10.2386 -1.96611
RightShoulder  -1.07157 -6.34114 31.2172
RightArm  18.4755 -6.83087 45.9785
RightForeArm  28.6329 8.96871 8.03253
RightHand  0.349174 4.97754 3.6148
LeftUpLeg  -6.877 3.8954 -9.63953
LeftLeg  19.5599 7.69903 2.38324
LeftFoot  -6.07052 -0.33713 8.12164
LeftToes  8.91272e-011 -1.70619e-011 7.36378e-012
